<svg class="animated" id="freepik_stories-blogging" xmlns="http://www.w3.org/2000/svg" viewBox="0 0 750 500" version="1.1" xmlns:xlink="http://www.w3.org/1999/xlink" xmlns:svgjs="http://svgjs.com/svgjs"><style>svg#freepik_stories-blogging:not(.animated) .animable {opacity: 0;}svg#freepik_stories-blogging.animated #el9kl01e2tnwa {animation: 2.6s 1 forwards cubic-bezier(.36,-0.01,.5,1.38) slideDown;animation-delay: 0s;}svg#freepik_stories-blogging.animated #el1x310o2kmt2 {animation: 2.6s 1 forwards cubic-bezier(.36,-0.01,.5,1.38) slideDown;animation-delay: 0.325s;opacity: 0}svg#freepik_stories-blogging.animated #el7qjyo4dfi66 {animation: 2.6s 1 forwards cubic-bezier(.36,-0.01,.5,1.38) slideDown;animation-delay: 0.65s;opacity: 0}svg#freepik_stories-blogging.animated #ela1onkzzu1rj {animation: 2.6s 1 forwards cubic-bezier(.36,-0.01,.5,1.38) slideDown;animation-delay: 0.9750000000000001s;opacity: 0}svg#freepik_stories-blogging.animated #ely9b9ve1f2i {animation: 2.6s 1 forwards cubic-bezier(.36,-0.01,.5,1.38) slideDown;animation-delay: 1.3s;opacity: 0}svg#freepik_stories-blogging.animated #ele3qrqv6or6f {animation: 2.6s 1 forwards cubic-bezier(.36,-0.01,.5,1.38) slideDown;animation-delay: 1.625s;opacity: 0}svg#freepik_stories-blogging.animated #elgg301j3kwmf {animation: 2.6s 1 forwards cubic-bezier(.36,-0.01,.5,1.38) slideDown;animation-delay: 1.9500000000000002s;opacity: 0}svg#freepik_stories-blogging.animated #ele2fxrto61hd {animation: 2.6s 1 forwards cubic-bezier(.36,-0.01,.5,1.38) slideDown;animation-delay: 2.275s;opacity: 0}svg#freepik_stories-blogging.animated #freepik--speech-bubble--inject-72 {animation: 2.6s 1 forwards cubic-bezier(.36,-0.01,.5,1.38) slideDown,1.5s Infinite  linear floating;animation-delay: 0s,2.6s;}            @keyframes slideDown {                0% {                    opacity: 0;                    transform: translateY(-30px);                }                100% {                    opacity: 1;                    transform: translateY(0);                }            }                    @keyframes floating {                0% {                    opacity: 1;                    transform: translateY(0px);                }                50% {                    transform: translateY(-10px);                }                100% {                    opacity: 1;                    transform: translateY(0px);                }            }        </style><g id="freepik--background-complete--inject-72" class="animable" style="transform-origin: 387.887px 255.32px;"><rect x="53.19" y="75.47" width="119.58" height="214.82" style="fill: rgb(235, 235, 235); transform-origin: 112.98px 182.88px;" id="el2kz74bhm428" class="animable"></rect><rect x="57.97" y="81.7" width="108.79" height="202.19" style="fill: rgb(250, 250, 250); transform-origin: 112.365px 182.795px;" id="elzafib2mle3o" class="animable"></rect><polygon points="166.76 84.08 57.97 222.47 57.97 81.7 166.76 81.7 166.76 84.08" style="fill: rgb(245, 245, 245); transform-origin: 112.365px 152.085px;" id="elom6j0g1z0e" class="animable"></polygon><rect x="57.97" y="139.86" width="111.15" height="2.15" style="fill: rgb(235, 235, 235); transform-origin: 113.545px 140.935px;" id="elyb6gfcmqg7a" class="animable"></rect><rect x="57.97" y="188.01" width="111.15" height="2.15" style="fill: rgb(235, 235, 235); transform-origin: 113.545px 189.085px;" id="elaj1l9yzhvy" class="animable"></rect><rect x="57.97" y="236.16" width="111.15" height="2.15" style="fill: rgb(235, 235, 235); transform-origin: 113.545px 237.235px;" id="ella15ytz8fvl" class="animable"></rect><g id="elscmg0phvla"><rect x="38.03" y="212.53" width="148.68" height="5.5" style="fill: rgb(235, 235, 235); transform-origin: 112.37px 215.28px; transform: rotate(-90deg);" class="animable"></rect></g><rect x="78.92" y="81.7" width="2.49" height="59.24" style="fill: rgb(235, 235, 235); transform-origin: 80.165px 111.32px;" id="el6y8sa8sz60u" class="animable"></rect><rect x="100.4" y="81.7" width="2.49" height="59.24" style="fill: rgb(235, 235, 235); transform-origin: 101.645px 111.32px;" id="el6zsc01yqwew" class="animable"></rect><rect x="121.87" y="81.7" width="2.49" height="59.24" style="fill: rgb(235, 235, 235); transform-origin: 123.115px 111.32px;" id="elwpea0k3tku" class="animable"></rect><rect x="143.35" y="81.7" width="2.49" height="59.24" style="fill: rgb(235, 235, 235); transform-origin: 144.595px 111.32px;" id="eljiqqonfe4up" class="animable"></rect><rect x="48.14" y="71.82" width="5.06" height="219.79" style="fill: rgb(245, 245, 245); transform-origin: 50.67px 181.715px;" id="el4nt95d9jsrn" class="animable"></rect><polygon points="177.83 292.22 172.77 290.29 172.77 71.82 177.83 71.82 177.83 292.22" style="fill: rgb(224, 224, 224); transform-origin: 175.3px 182.02px;" id="eli1zhqj0okla" class="animable"></polygon><rect x="48.14" y="69.61" width="129.7" height="5.86" style="fill: rgb(224, 224, 224); transform-origin: 112.99px 72.54px;" id="eltvjx9b4135" class="animable"></rect><rect x="44.55" y="292.94" width="136.71" height="5.46" style="fill: rgb(224, 224, 224); transform-origin: 112.905px 295.67px;" id="el67cydvacoef" class="animable"></rect><polygon points="172.77 290.29 181.25 292.94 44.55 292.94 53.19 290.29 172.77 290.29" style="fill: rgb(235, 235, 235); transform-origin: 112.9px 291.615px;" id="ele1cytk1d6u8" class="animable"></polygon><path d="M687.16,209.38s-8.46-.61-7.68,18.35,2.72,29.06,2.72,29.06-.25,4.21-3.51,3.38-9.38-4.92-12.41-1.86-2,8,2.14,13.77,12.82,18.62,13.6,19.79,1.07,3.3-1.24,3.09-17.88-5.49-19.95,2.05,12.16,21.61,13.68,23.17,1.61,2.56,1,3.51-5.69-1.32-10.18-2.64-9.93-2.07-10.76,2.38,5.44,17.48,28.89,31.17l11.28,5.63,10.68-6.81c22-16,26.88-29.55,25.62-33.9s-6.61-3.06-10.95-1.3-9.15,4.53-9.86,3.65-.73-1.88.63-3.59,14.1-17.12,11.29-24.42-17.77-.48-20-.05-2.19-1.73-1.54-2.95,8-14.93,11.55-21.05,4.19-11.07.75-13.91-9,1.94-12.16,3.09-3.82-3-3.82-3,.91-10.24-.21-29.19S687,209.38,687,209.38" style="fill: rgb(235, 235, 235); transform-origin: 692.861px 284.79px;" id="elv6mea6fzkwq" class="animable"></path><path d="M687.82,226.36a3,3,0,0,1,0,.4l.09,1.16c.07,1,.17,2.55.3,4.48.26,3.89.6,9.52,1,16.47.77,13.92,1.68,33.15,2.6,54.39s1.79,40.49,2.48,54.4c.36,6.95.64,12.57.84,16.48.1,1.94.17,3.44.22,4.49,0,.49,0,.88,0,1.16a4,4,0,0,1,0,.4s0-.13,0-.4,0-.66-.09-1.16c-.07-1-.18-2.55-.31-4.48-.26-3.88-.59-9.51-1-16.47-.78-13.92-1.68-33.15-2.61-54.4s-1.78-40.47-2.48-54.39c-.35-6.94-.64-12.57-.83-16.48-.1-1.93-.18-3.44-.23-4.48,0-.5,0-.89,0-1.17S687.82,226.36,687.82,226.36Z" style="fill: rgb(224, 224, 224); transform-origin: 691.578px 303.275px;" id="elr6bjql9ctr" class="animable"></path><path d="M674.62,264.38a4,4,0,0,1,.7.58c.44.4,1,1,1.79,1.72,1.49,1.48,3.5,3.57,5.66,5.92s4,4.41,5.52,6l1.68,1.82a4,4,0,0,1,.59.69s-.28-.18-.71-.57-1-1-1.78-1.73c-1.48-1.49-3.45-3.61-5.62-6l-5.55-6c-.67-.71-1.23-1.32-1.69-1.82A3.8,3.8,0,0,1,674.62,264.38Z" style="fill: rgb(224, 224, 224); transform-origin: 682.59px 272.745px;" id="el27n412wr57h" class="animable"></path><path d="M691.67,280.78c-.08-.08,4.05-4.4,9.22-9.65s9.44-9.43,9.52-9.34-4,4.4-9.21,9.65S691.76,280.87,691.67,280.78Z" style="fill: rgb(224, 224, 224); transform-origin: 701.04px 271.285px;" id="eldcjeqaslko" class="animable"></path><path d="M691.63,313.47a4.37,4.37,0,0,1,.78-.5l2.21-1.24c1.86-1,4.43-2.5,7.2-4.2s5.24-3.32,7-4.51l2.1-1.41a3.22,3.22,0,0,1,.81-.47,4.8,4.8,0,0,1-.71.61c-.47.37-1.16.89-2,1.52-1.73,1.25-4.17,2.92-7,4.63s-5.38,3.12-7.28,4.1c-1,.49-1.73.87-2.28,1.12A3.72,3.72,0,0,1,691.63,313.47Z" style="fill: rgb(224, 224, 224); transform-origin: 701.68px 307.305px;" id="eljuwbyiy2lna" class="animable"></path><path d="M672.94,302a4.05,4.05,0,0,1,.78.37c.49.26,1.19.65,2,1.13,1.72,1,4.08,2.35,6.67,3.89s4.92,3,6.6,4c.84.53,1.51.95,2,1.26a3.09,3.09,0,0,1,.69.51,3.76,3.76,0,0,1-.78-.37c-.49-.26-1.19-.65-2-1.13-1.71-1-4.07-2.35-6.66-3.89s-4.92-3-6.6-4c-.84-.52-1.51-.95-2-1.26S672.92,302.06,672.94,302Z" style="fill: rgb(224, 224, 224); transform-origin: 682.309px 307.58px;" id="elr1e2g4xuqps" class="animable"></path><path d="M669.23,330.89a4.4,4.4,0,0,1,1,.48l2.63,1.45c2.21,1.23,5.24,3,8.58,4.91s6.35,3.73,8.52,5l2.55,1.57a4.84,4.84,0,0,1,.91.63,6.39,6.39,0,0,1-1-.48L689.79,343c-2.2-1.24-5.24-3-8.58-4.92s-6.35-3.72-8.51-5l-2.56-1.57A6.77,6.77,0,0,1,669.23,330.89Z" style="fill: rgb(224, 224, 224); transform-origin: 681.325px 337.91px;" id="elsa1xtkx82mm" class="animable"></path><path d="M692.93,344.46a5.31,5.31,0,0,1,1-.66l2.74-1.67c2.32-1.41,5.51-3.37,9-5.63s6.55-4.37,8.77-5.92l2.64-1.83a5.2,5.2,0,0,1,1-.63,8.27,8.27,0,0,1-.9.76c-.6.47-1.47,1.14-2.56,1.95-2.18,1.61-5.24,3.78-8.72,6s-6.69,4.18-9,5.52c-1.18.67-2.14,1.2-2.82,1.56A7.51,7.51,0,0,1,692.93,344.46Z" style="fill: rgb(224, 224, 224); transform-origin: 705.505px 336.29px;" id="elo1hruel0npm" class="animable"></path><polygon points="709.88 363.93 678.67 363.93 688.86 441.03 699.7 441.03 709.88 363.93" style="fill: rgb(224, 224, 224); transform-origin: 694.275px 402.48px;" id="elmrklqrw8wb8" class="animable"></polygon><path d="M680.29,373.4s0,.11.17.28a2,2,0,0,0,.75.54,3.78,3.78,0,0,0,3.3-.41c1.26-.69,2.36-2.06,4-2.66a8.82,8.82,0,0,1,5.73.11,24.16,24.16,0,0,1,5.35,2.59,36,36,0,0,0,4.34,2.33,12,12,0,0,0,3.21.93,5.65,5.65,0,0,0,.91.06c.2,0,.31,0,.31,0a16,16,0,0,1-4.28-1.29,41.4,41.4,0,0,1-4.25-2.4,23.68,23.68,0,0,0-5.43-2.67,9.2,9.2,0,0,0-6.06-.07,7.94,7.94,0,0,0-2.28,1.41,17.35,17.35,0,0,1-1.79,1.38,3.66,3.66,0,0,1-3,.53A3,3,0,0,1,680.29,373.4Z" style="fill: rgb(245, 245, 245); transform-origin: 694.325px 373.716px;" id="elcc1pqz9fzo8" class="animable"></path><path d="M681.43,387.61s.25-.32.74-.83a6.71,6.71,0,0,1,2.49-1.58,11.17,11.17,0,0,1,4.34-.66,47.35,47.35,0,0,1,5.43.74,18.5,18.5,0,0,0,5.56.23,15.27,15.27,0,0,0,4.38-1.25A13.41,13.41,0,0,0,707,382.7a3.84,3.84,0,0,0,.83-.75,27.38,27.38,0,0,1-3.61,2,15.76,15.76,0,0,1-4.28,1.12,19.5,19.5,0,0,1-5.43-.27,42.12,42.12,0,0,0-5.5-.71,11.15,11.15,0,0,0-4.48.79,6.61,6.61,0,0,0-2.51,1.78,4.23,4.23,0,0,0-.47.7A.77.77,0,0,0,681.43,387.61Z" style="fill: rgb(245, 245, 245); transform-origin: 694.63px 384.78px;" id="elrankm5dp7w" class="animable"></path><path d="M706.35,395.21a2.55,2.55,0,0,0-.86-.45,9.24,9.24,0,0,0-2.59-.55,16.43,16.43,0,0,0-3.91.22c-1.45.24-3,.64-4.65,1a20.07,20.07,0,0,1-4.65.52,10.06,10.06,0,0,1-3.69-.8,8.55,8.55,0,0,1-2.8-2.08,2.36,2.36,0,0,0,.53.81,6.51,6.51,0,0,0,2.12,1.6,9.92,9.92,0,0,0,3.82.94,18.72,18.72,0,0,0,4.77-.5c1.66-.35,3.21-.76,4.63-1a17.92,17.92,0,0,1,3.81-.32A14.06,14.06,0,0,1,706.35,395.21Z" style="fill: rgb(245, 245, 245); transform-origin: 694.775px 394.748px;" id="el3qb1mqzmp1i" class="animable"></path><path d="M684.19,405.9a5,5,0,0,1,3-.3,14.46,14.46,0,0,1,3.17,1.18,11.85,11.85,0,0,0,4.12,1.13,12.25,12.25,0,0,0,7.46-1.73,10.54,10.54,0,0,0,1.86-1.43c.38-.4.57-.63.55-.66a26.35,26.35,0,0,1-2.59,1.78,12.69,12.69,0,0,1-7.24,1.53c-2.95-.16-5.22-1.93-7.27-2.16a4.63,4.63,0,0,0-2.35.2C684.4,405.65,684.17,405.88,684.19,405.9Z" style="fill: rgb(245, 245, 245); transform-origin: 694.27px 406.025px;" id="elwt2a8dv4e5" class="animable"></path><path d="M685.93,420.7a6,6,0,0,0,2.6-.52c1.57-.52,3.51-1.72,5.78-2.62a9.42,9.42,0,0,1,3.31-.7,6.19,6.19,0,0,1,2.67.61,5.89,5.89,0,0,1,1.93,1.66,1.41,1.41,0,0,0-.3-.65,4.19,4.19,0,0,0-1.46-1.33,6.3,6.3,0,0,0-2.83-.76,9.31,9.31,0,0,0-3.5.69c-2.35.94-4.23,2.18-5.73,2.77S685.92,420.62,685.93,420.7Z" style="fill: rgb(245, 245, 245); transform-origin: 694.075px 418.546px;" id="elsff80euy0m" class="animable"></path><path d="M687.46,427.59a7.47,7.47,0,0,0,2,.64,35.38,35.38,0,0,0,4.94.83,36.11,36.11,0,0,0,5,.15,6.87,6.87,0,0,0,2.06-.25c0-.15-3.16,0-7-.41S687.5,427.44,687.46,427.59Z" style="fill: rgb(245, 245, 245); transform-origin: 694.46px 428.404px;" id="elsv4sila1xyf" class="animable"></path><rect x="595.81" y="84.3" width="96.36" height="63.36" style="fill: rgb(224, 224, 224); transform-origin: 643.99px 115.98px;" id="el2ld4388lb4k" class="animable"></rect><rect x="599.16" y="86.89" width="89.61" height="57.93" style="fill: rgb(250, 250, 250); transform-origin: 643.965px 115.855px;" id="elewyc800toaj" class="animable"></rect><rect x="629.35" y="108.01" width="29.23" height="15.94" style="fill: rgb(224, 224, 224); transform-origin: 643.965px 115.98px;" id="el47xmd6hsva8" class="animable"></rect></g><g id="freepik--Floor--inject-72" class="animable" style="transform-origin: 375px 442.05px;"><path d="M719.25,442.05c0,.15-154.14.26-344.23.26s-344.27-.11-344.27-.26,154.11-.26,344.27-.26S719.25,441.91,719.25,442.05Z" style="fill: rgb(38, 50, 56); transform-origin: 375px 442.05px;" id="elciyh0ge4eq8" class="animable"></path></g><g id="freepik--Device--inject-72" class="animable" style="transform-origin: 333.65px 241.485px;"><path d="M290.1,38.25H496.45a0,0,0,0,1,0,0V234.78A16.22,16.22,0,0,1,480.23,251H290.1a0,0,0,0,1,0,0V38.25A0,0,0,0,1,290.1,38.25Z" style="fill: rgb(235, 235, 235); transform-origin: 393.275px 144.625px;" id="elb2yez11dul8" class="animable"></path><path d="M479.41,101.57c0,.43-37.29.78-83.29.78s-83.31-.35-83.31-.78,37.29-.78,83.31-.78S479.41,101.14,479.41,101.57Z" style="fill: rgb(69, 90, 100); transform-origin: 396.11px 101.57px;" id="elrhhn4qwtj2l" class="animable"></path><path d="M397.1,116c0,.43-18.42.78-41.15.78s-41.16-.35-41.16-.78,18.43-.78,41.16-.78S397.1,115.55,397.1,116Z" style="fill: rgb(69, 90, 100); transform-origin: 355.945px 116px;" id="elqtphfxz8kvj" class="animable"></path><path d="M430,114.65c0,.43-4.88.78-10.9.78s-10.9-.35-10.9-.78,4.88-.78,10.9-.78S430,114.22,430,114.65Z" style="fill: rgb(69, 90, 100); transform-origin: 419.1px 114.65px;" id="el1fk6v0dgemw" class="animable"></path><path d="M483.86,113.76c0,.43-9.66.78-21.58.78s-21.58-.35-21.58-.78,9.66-.78,21.58-.78S483.86,113.33,483.86,113.76Z" style="fill: rgb(69, 90, 100); transform-origin: 462.28px 113.76px;" id="el2luqbgtiuzo" class="animable"></path><path d="M390.23,129.77c0,.44-17.33.79-38.71.79s-38.71-.35-38.71-.79,17.33-.78,38.71-.78S390.23,129.34,390.23,129.77Z" style="fill: rgb(69, 90, 100); transform-origin: 351.52px 129.775px;" id="elw9ypo9ditsi" class="animable"></path><path d="M483.86,129.38c0,.43-18.92.78-42.26.78s-42.27-.35-42.27-.78,18.92-.78,42.27-.78S483.86,128.94,483.86,129.38Z" style="fill: rgb(69, 90, 100); transform-origin: 441.595px 129.38px;" id="elu9z42mskxk" class="animable"></path><path d="M483.86,143.26c0,.43-8.42.78-18.82.78s-18.82-.35-18.82-.78,8.43-.79,18.82-.79S483.86,142.82,483.86,143.26Z" style="fill: rgb(69, 90, 100); transform-origin: 465.04px 143.255px;" id="elzti2ntc023" class="animable"></path><path d="M406,86.12c0,.43-20.42.78-45.6.78s-45.61-.35-45.61-.78,20.42-.78,45.61-.78S406,85.69,406,86.12Z" style="fill: rgb(22, 22, 22); transform-origin: 360.395px 86.12px;" id="elg0t7erm9205" class="animable"></path><rect x="118.77" y="157.42" width="428.67" height="283.47" rx="14.57" style="fill: rgb(38, 50, 56); transform-origin: 333.105px 299.155px;" id="eldodniduojnv" class="animable"></rect><path d="M101.44,419.92H565.86a0,0,0,0,1,0,0v7a17.8,17.8,0,0,1-17.8,17.8H119.24a17.8,17.8,0,0,1-17.8-17.8v-7a0,0,0,0,1,0,0Z" style="fill: rgb(38, 50, 56); transform-origin: 333.65px 432.32px;" id="el1a5phormx5u" class="animable"></path><rect x="130.87" y="168.68" width="404.45" height="239.39" style="fill: rgb(69, 90, 100); transform-origin: 333.095px 288.375px;" id="eljh9on43qvw" class="animable"></rect><path d="M291.44,419.92h1.81l5.28,0,19.59-.08,65.53-.14h.48l-.24.42-2.6,4.46-2.75,4.71-.08.14h-.16l-81.1-.15h-.07l0-.06-4.25-6.91-1.07-1.75-.34-.58s.15.21.4.61l1.14,1.75c1,1.55,2.44,3.81,4.33,6.74l-.11-.06,81.1-.15-.24.14,2.75-4.71,2.6-4.46.24.42-65.26-.14L298.7,420l-5.36,0h-1.41Z" style="fill: rgb(69, 90, 100); transform-origin: 337.785px 424.565px;" id="el1lm6xcwji4g" class="animable"></path><path d="M547.43,419.92c0,.15-96,.26-214.32.26s-214.34-.11-214.34-.26,95.94-.26,214.34-.26S547.43,419.78,547.43,419.92Z" style="fill: rgb(69, 90, 100); transform-origin: 333.1px 419.92px;" id="el6zd2ynol0ub" class="animable"></path><path d="M438,120.87h0a12,12,0,0,1,12,12v24.57H414.2V134.75a13.87,13.87,0,0,1,13.88-13.88Z" style="fill: rgb(38, 50, 56); transform-origin: 432.1px 139.155px;" id="elxyaa0b439v9" class="animable"></path><path d="M438,120.87c0,.15-33.78.23-75.45.2s-75.45-.19-75.45-.33,33.77-.23,75.45-.2S438,120.73,438,120.87Z" style="fill: rgb(38, 50, 56); transform-origin: 362.55px 120.805px;" id="elyvf5izo4kag" class="animable"></path><path d="M437.72,120.84l-14.94-.1-21.69.13H241.75a24.5,24.5,0,0,0-24.5,24.5V408.64H423.61V134.3C424.22,120.87,437.72,120.84,437.72,120.84Z" style="fill: rgb(250, 250, 250); transform-origin: 327.485px 264.69px;" id="el8ih8fmgb7db" class="animable"></path><path d="M437.72,120.84l-124.43.27-62.21,0H243.3c-1.3,0-2.58,0-3.86.11a25.5,25.5,0,0,0-3.77.69,24.06,24.06,0,0,0-16.5,14.8c-.2.61-.48,1.19-.62,1.81l-.47,1.86a25.88,25.88,0,0,0-.45,3.81c-.11,5.15,0,10.36,0,15.54l.17,248.85-.5-.5,206.36.14-.36.36.1-148,.12-74,.07-37,0-9.25v-4.63a14.88,14.88,0,0,1,.09-2.31,12.6,12.6,0,0,1,.37-2.28,12.23,12.23,0,0,1,5-7.53,14.49,14.49,0,0,1,4.15-2A17.58,17.58,0,0,1,437.72,120.84Zm0,0a17.46,17.46,0,0,0-4.54.81,14.47,14.47,0,0,0-4.14,2,12.13,12.13,0,0,0-4.94,7.52,12.34,12.34,0,0,0-.36,2.27,16.17,16.17,0,0,0-.08,2.31v13.87l.08,37,.12,74,.09,148V409h-.37l-206.36.13h-.49v-.5l.16-248.85c0-5.19,0-10.36.07-15.57a27.08,27.08,0,0,1,.46-3.91l.5-1.9c.14-.64.43-1.24.63-1.86a24.68,24.68,0,0,1,16.94-15.16,26.6,26.6,0,0,1,3.87-.7c1.31-.07,2.62-.14,3.91-.11h7.78l62.21,0Z" style="fill: rgb(38, 50, 56); transform-origin: 327.225px 264.846px;" id="el707k23g6d1e" class="animable"></path><path d="M248.34,168.24h36l.06,12.06h-1.73q-.84-6.47-4.84-8.76a15,15,0,0,0-6.72-1.37v31.5c0,2.21.38,3.67,1.15,4.39s2.37,1.08,4.81,1.08v1.52H255.76v-1.52c2.33,0,3.89-.37,4.65-1.1s1.16-2.18,1.16-4.37v-31.5a15.37,15.37,0,0,0-6.72,1.37c-2.86,1.57-4.48,4.48-4.85,8.76h-1.72Z" style="fill: rgb(22, 22, 22); transform-origin: 266.34px 188.45px;" id="elgn1oqmz1ib9" class="animable"></path><path d="M395.29,171c0,.43-19.86.78-44.36.78s-44.36-.35-44.36-.78,19.86-.78,44.36-.78S395.29,170.53,395.29,171Z" style="fill: rgb(22, 22, 22); transform-origin: 350.93px 171px;" id="elscxpuco6z9q" class="animable"></path><path d="M342.65,185.14c0,.43-7.68.78-17.15.78s-17.15-.35-17.15-.78,7.68-.79,17.15-.79S342.65,184.7,342.65,185.14Z" style="fill: rgb(69, 90, 100); transform-origin: 325.5px 185.135px;" id="elpqvngal6dmj" class="animable"></path><path d="M299.41,228.38c0,.43-14.58.78-32.57.78s-32.58-.35-32.58-.78,14.58-.78,32.58-.78S299.41,228,299.41,228.38Z" style="fill: rgb(69, 90, 100); transform-origin: 266.835px 228.38px;" id="el47in5lls7qa" class="animable"></path><path d="M373.19,228.38c0,.43-14.59.78-32.57.78s-32.58-.35-32.58-.78,14.58-.78,32.58-.78S373.19,228,373.19,228.38Z" style="fill: rgb(22, 22, 22); transform-origin: 340.615px 228.38px;" id="eljbg1s3uiu5l" class="animable"></path><path d="M299.41,239.93c0,.43-14.58.78-32.57.78s-32.58-.35-32.58-.78,14.58-.78,32.58-.78S299.41,239.5,299.41,239.93Z" style="fill: rgb(69, 90, 100); transform-origin: 266.835px 239.93px;" id="eluu4lrna9ow" class="animable"></path><path d="M299.41,251.48c0,.43-14.58.78-32.57.78s-32.58-.35-32.58-.78,14.58-.79,32.58-.79S299.41,251,299.41,251.48Z" style="fill: rgb(22, 22, 22); transform-origin: 266.835px 251.475px;" id="elqvrgzpuig1h" class="animable"></path><path d="M342.65,208.66c0,.43-7.68.78-17.15.78s-17.15-.35-17.15-.78,7.68-.78,17.15-.78S342.65,208.23,342.65,208.66Z" style="fill: rgb(69, 90, 100); transform-origin: 325.5px 208.66px;" id="el9lhqfwemh6" class="animable"></path><path d="M402.15,228.38c0,.43-5.12.78-11.43.78s-11.44-.35-11.44-.78,5.12-.78,11.44-.78S402.15,228,402.15,228.38Z" style="fill: rgb(69, 90, 100); transform-origin: 390.715px 228.38px;" id="el0q18gbyh0e6" class="animable"></path><path d="M408.27,185.14c0,.43-13.18.78-29.43.78s-29.43-.35-29.43-.78,13.17-.79,29.43-.79S408.27,184.7,408.27,185.14Z" style="fill: rgb(69, 90, 100); transform-origin: 378.84px 185.135px;" id="elb437ms43rx" class="animable"></path><path d="M405.61,196.4c0,.43-21.77.78-48.63.78s-48.63-.35-48.63-.78,21.77-.78,48.63-.78S405.61,196,405.61,196.4Z" style="fill: rgb(69, 90, 100); transform-origin: 356.98px 196.4px;" id="elva6rhvpxd2" class="animable"></path><path d="M402.15,239.93c0,.43-21.07.78-47,.78s-47.06-.35-47.06-.78,21.06-.78,47.06-.78S402.15,239.5,402.15,239.93Z" style="fill: rgb(69, 90, 100); transform-origin: 355.12px 239.93px;" id="el8nytjo8acfr" class="animable"></path><path d="M402.15,273.36c0,.43-19.77.78-44.15.78s-44.16-.35-44.16-.78,19.77-.78,44.16-.78S402.15,272.93,402.15,273.36Z" style="fill: rgb(22, 22, 22); transform-origin: 357.995px 273.36px;" id="elpi1jzwvgkzh" class="animable"></path><path d="M402.15,284.6c0,.43-19.77.78-44.15.78s-44.16-.35-44.16-.78,19.77-.78,44.16-.78S402.15,284.17,402.15,284.6Z" style="fill: rgb(69, 90, 100); transform-origin: 357.995px 284.6px;" id="el9oz69ouhsf" class="animable"></path><path d="M402.15,295.84c0,.43-19.77.78-44.15.78s-44.16-.35-44.16-.78,19.77-.78,44.16-.78S402.15,295.41,402.15,295.84Z" style="fill: rgb(69, 90, 100); transform-origin: 357.995px 295.84px;" id="el3uso2dk200h" class="animable"></path><path d="M402.15,307.08c0,.43-19.77.78-44.15.78s-44.16-.35-44.16-.78,19.77-.78,44.16-.78S402.15,306.65,402.15,307.08Z" style="fill: rgb(69, 90, 100); transform-origin: 357.995px 307.08px;" id="ellz6dn0bk1t" class="animable"></path><path d="M364.68,318.32c0,.21-2.85.41-7.45.55s-11,.23-18,.23-13.38-.09-18-.23-7.44-.34-7.44-.55,2.84-.41,7.44-.55,11-.23,18-.23,13.37.09,18,.23S364.68,318.1,364.68,318.32Z" style="fill: rgb(69, 90, 100); transform-origin: 339.235px 318.32px;" id="elc1jvasb4ih5" class="animable"></path><path d="M386.15,252.08c0,.43-17,.78-38,.78s-38-.35-38-.78,17-.78,38-.78S386.15,251.65,386.15,252.08Z" style="fill: rgb(69, 90, 100); transform-origin: 348.15px 252.08px;" id="ell7rhwxfq1mn" class="animable"></path><polygon points="297.87 274.63 302.56 361.39 217.73 372.01 217.66 273.89 297.87 274.63" style="fill: rgb(224, 224, 224); transform-origin: 260.11px 322.95px;" id="eltoh62wj7r8a" class="animable"></polygon><g id="elntebv8rzc6"><rect x="199.27" y="257.44" width="92.04" height="115.12" style="fill: rgb(245, 245, 245); transform-origin: 245.29px 315px; transform: rotate(-89.63deg);" class="animable"></rect></g><g id="elimqk1985ap"><rect x="204.99" y="261.48" width="80.45" height="107.03" style="fill: rgb(22, 22, 22); transform-origin: 245.215px 314.995px; transform: rotate(-89.63deg);" class="animable"></rect></g><g id="el6fw760xnexs"><g style="opacity: 0.2; transform-origin: 244.96px 330.345px;" class="animable"><polygon points="191.44 354.88 229.15 305.12 252.1 336.55 267.92 319.93 298.48 355.57 191.44 354.88" id="elxmdghqxf3a" class="animable" style="transform-origin: 244.96px 330.345px;"></polygon></g></g><g id="elubve1bxo2g"><g style="opacity: 0.2; transform-origin: 253.74px 299.15px;" class="animable"><path d="M262.17,299.2a8.43,8.43,0,1,1-8.37-8.48A8.42,8.42,0,0,1,262.17,299.2Z" id="ela160feolbud" class="animable" style="transform-origin: 253.74px 299.15px;"></path></g></g><path d="M313.64,383.1a1.78,1.78,0,1,1-1.78-1.78A1.77,1.77,0,0,1,313.64,383.1Z" style="fill: rgb(38, 50, 56); transform-origin: 311.86px 383.1px;" id="elc77xkq4tu66" class="animable"></path><path d="M324.21,383.1a1.78,1.78,0,1,1-1.78-1.78A1.78,1.78,0,0,1,324.21,383.1Z" style="fill: rgb(38, 50, 56); transform-origin: 322.43px 383.1px;" id="elxhyx00805ds" class="animable"></path><path d="M334.77,383.1a1.78,1.78,0,1,1-1.78-1.78A1.78,1.78,0,0,1,334.77,383.1Z" style="fill: rgb(38, 50, 56); transform-origin: 332.99px 383.1px;" id="eljuwbtu1cot" class="animable"></path><path d="M373.69,341.74c0,.43-14.59.78-32.58.78s-32.58-.35-32.58-.78,14.59-.78,32.58-.78S373.69,341.31,373.69,341.74Z" style="fill: rgb(22, 22, 22); transform-origin: 341.11px 341.74px;" id="eltlhas57wa7" class="animable"></path><path d="M402.65,353.29c0,.43-21.07.78-47.06.78s-47.06-.35-47.06-.78,21.07-.78,47.06-.78S402.65,352.86,402.65,353.29Z" style="fill: rgb(69, 90, 100); transform-origin: 355.59px 353.29px;" id="elvu12j5f27p" class="animable"></path></g><g id="freepik--Box--inject-72" class="animable" style="transform-origin: 631.335px 402.008px;"><g id="el3g523ag5puv"><rect x="616.47" y="365.8" width="55.44" height="69.34" style="fill: rgb(245, 245, 245); transform-origin: 644.19px 400.47px; transform: rotate(-89.4271deg);" class="animable"></rect></g><g id="eljrmaoq1odi"><rect x="619.91" y="368.23" width="48.46" height="64.47" style="fill: rgb(22, 22, 22); transform-origin: 644.14px 400.465px; transform: rotate(-89.63deg);" class="animable"></rect></g><g id="eln2yevawr7r"><polygon points="611.75 424.49 634.46 394.52 648.29 413.45 657.82 403.44 676.22 424.91 611.75 424.49" style="opacity: 0.2; transform-origin: 643.985px 409.715px;" class="animable"></polygon></g><g id="els9w9v4duxwe"><g style="opacity: 0.2; transform-origin: 649.28px 390.98px;" class="animable"><path d="M654.36,391a5.08,5.08,0,1,1-5.05-5.1A5.08,5.08,0,0,1,654.36,391Z" id="el63u6ecvfshk" class="animable" style="transform-origin: 649.28px 390.98px;"></path></g></g><g id="elsny49crsmel"><rect x="606.3" y="360.01" width="55.44" height="69.34" style="fill: rgb(245, 245, 245); transform-origin: 634.02px 394.68px; transform: rotate(-89.63deg);" class="animable"></rect></g><g id="ell23f7xsn5db"><rect x="609.75" y="362.45" width="48.46" height="64.47" style="fill: rgb(22, 22, 22); transform-origin: 633.98px 394.685px; transform: rotate(-89.63deg);" class="animable"></rect></g><g id="eluxbfgzu5nyh"><polygon points="601.58 418.7 624.29 388.73 638.12 407.66 647.65 397.65 666.05 419.12 601.58 418.7" style="opacity: 0.2; transform-origin: 633.815px 403.925px;" class="animable"></polygon></g><g id="elyn524hd3xi"><g style="opacity: 0.2; transform-origin: 639.11px 385.139px;" class="animable"><path d="M644.19,385.17a5.08,5.08,0,1,1-5-5.11A5.08,5.08,0,0,1,644.19,385.17Z" id="ele42kx53112i" class="animable" style="transform-origin: 639.11px 385.139px;"></path></g></g><g id="elsti885rrsra"><rect x="597.24" y="355.23" width="55.44" height="69.34" style="fill: rgb(245, 245, 245); transform-origin: 624.96px 389.9px; transform: rotate(-89.63deg);" class="animable"></rect></g><g id="elk7i1n16lfas"><rect x="600.69" y="357.66" width="48.46" height="64.47" style="fill: rgb(22, 22, 22); transform-origin: 624.92px 389.895px; transform: rotate(-89.63deg);" class="animable"></rect></g><g id="elxwrsz66v59f"><polygon points="592.53 413.92 615.24 383.94 629.07 402.88 638.59 392.86 657 414.33 592.53 413.92" style="opacity: 0.2; transform-origin: 624.765px 399.135px;" class="animable"></polygon></g><g id="elnl0t7k5a03m"><g style="opacity: 0.2; transform-origin: 630.05px 380.349px;" class="animable"><path d="M635.13,380.38a5.08,5.08,0,1,1-5-5.11A5.08,5.08,0,0,1,635.13,380.38Z" id="elfqcwpgh6hxw" class="animable" style="transform-origin: 630.05px 380.349px;"></path></g></g><g id="elvzbaqpadnwk"><rect x="587.08" y="361.18" width="55.44" height="69.34" style="fill: rgb(245, 245, 245); transform-origin: 614.8px 395.85px; transform: rotate(-89.4271deg);" class="animable"></rect></g><g id="el84r2v69emfa"><rect x="590.52" y="363.62" width="48.46" height="64.47" style="fill: rgb(69, 90, 100); transform-origin: 614.75px 395.855px; transform: rotate(-89.63deg);" class="animable"></rect></g><g id="eln9pazs6c0c"><polygon points="582.36 419.88 605.07 389.9 618.9 408.83 628.42 398.82 646.83 420.29 582.36 419.88" style="opacity: 0.2; transform-origin: 614.595px 405.095px;" class="animable"></polygon></g><g id="eljqylg0ohsx"><g style="opacity: 0.2; transform-origin: 619.92px 386.309px;" class="animable"><path d="M625,386.34a5.08,5.08,0,1,1-5-5.11A5.06,5.06,0,0,1,625,386.34Z" id="elju11uf34psl" class="animable" style="transform-origin: 619.92px 386.309px;"></path></g></g><rect x="649.64" y="388.53" width="40.03" height="53.53" style="fill: rgb(38, 50, 56); transform-origin: 669.655px 415.295px;" id="elvdum3w1ypy" class="animable"></rect><path d="M573,388.53v53.52H653V388.53Zm48.55,12.66h-17a3.68,3.68,0,0,1,0-7.36h17a3.68,3.68,0,1,1,0,7.36Z" style="fill: rgb(22, 22, 22); transform-origin: 613px 415.29px;" id="elqzd421dhb1" class="animable"></path></g><g id="freepik--Character--inject-72" class="animable" style="transform-origin: 431.774px 367.177px;"><path d="M521.05,436.46,446.6,431.9c-.47-1.07-.78-1.69-.78-1.69l-20.18.41-6.57-.41-.26.54-67.74,1.35c-13.51,0-27.71,8.24-27.71,18.77-.17,10,4.69,20.9,16.79,20.65l92.29-.31,92.3.31c12.1.25,15.3-7,15.32-15.71C541.47,439.69,531.37,436.59,521.05,436.46Z" style="fill: rgb(69, 90, 100); transform-origin: 431.774px 450.868px;" id="elsrl6omaatss" class="animable"></path><path d="M348.62,471.53l.44,0,1.31,0,5-.05,18.58-.08,62-.08-.26.27c-.13-2-.26-4.19-.4-6.37-.28-4.46-.55-8.86-.81-13l.23.24L377.61,446l-16.92-1.93-4.56-.55-1.18-.15a2.13,2.13,0,0,1-.39-.07l.4,0,1.18.11,4.57.45,16.94,1.78,57.11,6.18.21,0v.21c.27,4.18.54,8.57.82,13,.14,2.18.27,4.35.4,6.37v.28h-.27l-62-.09-18.58-.08-5,0-1.31,0Z" style="fill: rgb(38, 50, 56); transform-origin: 392.405px 457.49px;" id="eluf6oeaycll" class="animable"></path><path d="M367.65,445.05c-.06.07-1-.68-2.61-1.67a28.59,28.59,0,0,0-6.78-3,28.28,28.28,0,0,0-7.33-1.08c-1.9,0-3.08.12-3.09,0a2.75,2.75,0,0,1,.82-.19,17.43,17.43,0,0,1,2.27-.2,24.49,24.49,0,0,1,14.31,4.11,17.37,17.37,0,0,1,1.82,1.38C367.46,444.81,367.67,445,367.65,445.05Z" style="fill: rgb(38, 50, 56); transform-origin: 357.746px 441.977px;" id="eloprqcjyky08" class="animable"></path><path d="M515.27,441.09c0,.14-14.65,3.69-32.79,7.93s-32.89,7.56-32.92,7.42,14.65-3.69,32.8-7.93S515.24,441,515.27,441.09Z" style="fill: rgb(38, 50, 56); transform-origin: 482.415px 448.766px;" id="el0ch4q81ocm7k" class="animable"></path><path d="M502.86,439.65a30.25,30.25,0,0,0-5.76,2.76,28.58,28.58,0,0,0-4.67,4.34,4.89,4.89,0,0,1,1-1.63A15.31,15.31,0,0,1,501,440,5.32,5.32,0,0,1,502.86,439.65Z" style="fill: rgb(38, 50, 56); transform-origin: 497.645px 443.2px;" id="elvd13fbd5qlj" class="animable"></path><path d="M475.14,355.12l23.59,41.06a17.43,17.43,0,0,1,.47,16.49h0a17.45,17.45,0,0,1-16.09,9.63l-36.22-1-.95-13.17L477.83,402l-21.5-37.22Z" style="fill: rgb(255, 190, 157); transform-origin: 473.493px 388.713px;" id="elyxgsawuw1pk" class="animable"></path><path d="M387.24,425.38l33.3,8.82.73-10-30.69-17.82L413,364.78l-18.81-9.66L370.6,396.18h0a19.22,19.22,0,0,0,11.1,27.43Z" style="fill: rgb(255, 190, 157); transform-origin: 394.786px 394.66px;" id="elowr44kkwxl" class="animable"></path><path d="M465.13,381.48l22.76-12a115.94,115.94,0,0,0-9.75-16.26c-7.05-9.75-18-16.56-30.4-19.16h0l-26.18.31a34.8,34.8,0,0,0-9.34,2.15l0-.1c-14.21,3.13-30,34.12-30,34.12L403,381.45l.46,3.26a22,22,0,0,0,5.4,11.61l-6,39.67L470,437.38,461.47,409Z" style="fill: rgb(22, 22, 22); transform-origin: 435.055px 385.72px;" id="elais4vmkom9" class="animable"></path><path d="M409.45,396.54a4.71,4.71,0,0,1-1-.76,14.4,14.4,0,0,1-2.29-2.56,16.59,16.59,0,0,1-2.81-10.81,35.82,35.82,0,0,1,1.54-6c.6-1.81,1.22-3.41,1.75-4.75s1-2.41,1.32-3.14a5,5,0,0,1,.58-1.11,6.57,6.57,0,0,1-.39,1.19c-.31.85-.7,1.92-1.17,3.19s-1.06,3-1.63,4.77a36.58,36.58,0,0,0-1.48,5.94,17.09,17.09,0,0,0,.57,6,16.16,16.16,0,0,0,2,4.53A27.71,27.71,0,0,0,409.45,396.54Z" style="fill: rgb(38, 50, 56); transform-origin: 406.367px 381.975px;" id="el9ht6dm4jw9i" class="animable"></path><polygon points="399.37 445.57 395.57 401.32 477.46 401.32 472.03 446.12 399.37 445.57" style="fill: rgb(38, 50, 56); transform-origin: 436.515px 423.72px;" id="elh8emk0kyqnc" class="animable"></polygon><path d="M441.73,424.92a5.22,5.22,0,1,1-5.21-5.21A5.21,5.21,0,0,1,441.73,424.92Z" style="fill: rgb(250, 250, 250); transform-origin: 436.51px 424.93px;" id="el0esi2ggzpiu" class="animable"></path><polygon points="435.08 454.21 448.99 456.15 448.99 471.27 436.2 470.94 435.08 454.21" style="fill: rgb(255, 190, 157); transform-origin: 442.035px 462.74px;" id="elnsldo5sidpq" class="animable"></polygon><path d="M449,456.15h6.25a6.9,6.9,0,0,1,3.46.93L462,459a51.42,51.42,0,0,0,5.76,2.74c3.8,1.22,10.19,2.87,11.54,3.91,3.84,3,2.67,6.47.56,6.83-1.85.33-30.87-1.2-30.87-1.2Z" style="fill: rgb(22, 22, 22); transform-origin: 465.404px 464.338px;" id="elz150ia1qdxb" class="animable"></path><path d="M459.25,470a10,10,0,0,1-.67-3.93,9.73,9.73,0,0,1,.44-4,35,35,0,0,1,.08,3.94A33.81,33.81,0,0,1,459.25,470Z" style="fill: rgb(38, 50, 56); transform-origin: 458.895px 466.035px;" id="el14urdxmgbfv" class="animable"></path><path d="M462.22,469.93a25.13,25.13,0,0,1,.06-7.21,13.21,13.21,0,0,1,.23,3.61A13,13,0,0,1,462.22,469.93Z" style="fill: rgb(38, 50, 56); transform-origin: 462.268px 466.325px;" id="eltpvnas4gzfb" class="animable"></path><path d="M465.72,470.53a26.79,26.79,0,0,1-.58-7.43,13.57,13.57,0,0,1,.55,3.69A13.73,13.73,0,0,1,465.72,470.53Z" style="fill: rgb(38, 50, 56); transform-origin: 465.461px 466.815px;" id="el5nf6xrj7opg" class="animable"></path><path d="M456.55,466a3.94,3.94,0,0,1-1.28-.4,11.88,11.88,0,0,1-3.13-1.93c-.29-.25-.59-.53-.89-.84a3.53,3.53,0,0,1-.8-1.12,1.58,1.58,0,0,1,.18-1.56,1.17,1.17,0,0,1,.77-.42,2,2,0,0,1,.85.09,6.23,6.23,0,0,1,1.31,11.07,4,4,0,0,1-1.44.65,1.72,1.72,0,0,1-.81,0,1.06,1.06,0,0,1-.63-.56,1.56,1.56,0,0,1,.18-1.44,4.53,4.53,0,0,1,.8-1,9.66,9.66,0,0,1,3.08-2,3.79,3.79,0,0,1,1.29-.36s-.44.18-1.21.55a10.3,10.3,0,0,0-2.9,2.09,3.92,3.92,0,0,0-.71.9,1.22,1.22,0,0,0-.15,1.05.83.83,0,0,0,1,.34,3.64,3.64,0,0,0,1.25-.59,5.78,5.78,0,0,0-1.19-10.22,1,1,0,0,0-1.12.16,1.13,1.13,0,0,0-.12,1.11,6,6,0,0,0,1.53,1.84A16.32,16.32,0,0,0,456.55,466Z" style="fill: rgb(38, 50, 56); transform-origin: 453.436px 465.653px;" id="ellxy7dfvb2ub" class="animable"></path><path d="M479.86,472.47a3.2,3.2,0,0,0,.76-1,3.53,3.53,0,0,0-.41-3.15,7,7,0,0,0-3.86-2.91c-1.77-.64-3.87-.94-6-1.61a42,42,0,0,1-10.33-4.7c-1.22-.78-2.17-1.48-2.81-2a5.34,5.34,0,0,1-.95-.84,6.64,6.64,0,0,1,1.07.67c.67.45,1.64,1.1,2.89,1.84a46.57,46.57,0,0,0,10.28,4.52c2.09.65,4.18,1,6,1.65a7.27,7.27,0,0,1,4,3.19,3.7,3.7,0,0,1,.26,3.42,2.17,2.17,0,0,1-.64.71C480,472.44,479.87,472.49,479.86,472.47Z" style="fill: rgb(38, 50, 56); transform-origin: 468.66px 464.367px;" id="elbloibdmycr7" class="animable"></path><path d="M470.39,344.93a.65.65,0,0,1,0,.22l0,.62c-.05.58-.13,1.39-.22,2.42-.22,2.15-.53,5.22-.91,9.08l0,.23-.21-.11L456.91,351l.29-.08L450.64,362l-.14.23-.22-.16-11-8.47h.32l-4.81,3.77-6.56,5.13-.24.19-.14-.27-6.25-11.55.31.1-13.24,5.9-.25.11,0-.26-2-11.78.2.12L399,348l-2,.74-.52.19-.18.05s.05,0,.16-.09l.51-.22,2-.82,7.53-3,.17-.06,0,.18c.59,3.28,1.29,7.23,2.1,11.76l-.28-.15,13.21-6,.21-.09.11.19c2,3.66,4.08,7.52,6.27,11.55l-.39-.08,6.56-5.14,4.81-3.77.16-.12.16.12,11,8.49-.36.07,6.61-11,.1-.17.18.09,12,6.46-.23.12,1.06-9.06c.13-1,.23-1.83.3-2.41,0-.25.07-.45.09-.62A1.76,1.76,0,0,1,470.39,344.93Z" style="fill: rgb(245, 245, 245); transform-origin: 433.35px 353.74px;" id="elf6jzn7hek1j" class="animable"></path><path d="M480.11,356.07a1.28,1.28,0,0,1-.05.29c-.06.22-.13.5-.21.85-.21.77-.49,1.87-.86,3.27-.77,2.88-1.89,7-3.27,12.17l-.06.2-.18-.09L461.37,366l.28-.08c-3.61,5.14-7.61,10.85-11.88,16.95l-.18.25-.21-.22L438,371.32l-2.4-2.43.32,0-15.38,9.65-.22.14-.13-.22-8.3-14.66.26.1-15.82,5.45-.15.05-.05-.15c-1.5-4.34-2.69-7.79-3.51-10.18-.39-1.16-.7-2.07-.91-2.71-.1-.29-.17-.52-.23-.7a.78.78,0,0,1-.06-.24.88.88,0,0,1,.1.23l.27.68c.23.64.56,1.53,1,2.68.85,2.38,2.09,5.81,3.65,10.14l-.2-.1L412,363.52l.17-.06.09.16,8.35,14.62-.35-.09,15.38-9.67.17-.11.15.15q1.19,1.22,2.4,2.43l11.41,11.59-.39,0,11.94-16.91.1-.15.17.08,14.06,6.86-.23.11,3.42-12.13.94-3.25c.11-.34.19-.62.26-.83A1.08,1.08,0,0,1,480.11,356.07Z" style="fill: rgb(245, 245, 245); transform-origin: 435.765px 369.27px;" id="eldzboe6j7mnb" class="animable"></path><path d="M470,286.31a14.7,14.7,0,0,1-11.18-3.53c3.64,1.84,8.49-.69,9.78-4.56s.23-11.08-2.95-13.64a12.65,12.65,0,0,0-11-2.36c-3.75,1-7.72,6.71-8.95,10.39l.07.11c-.57-.23-1.16-.44-1.74-.64a30,30,0,0,0-12.95-1.57,21.08,21.08,0,0,0-11.83,5.21l25.43,40.87c4.62-.4,8.71-3.52,11.13-7.47s3.35-8.66,3.58-13.29c.06-1.17.05-2.34,0-3.51l8.17,1.31a18.29,18.29,0,0,0-5.43-4.86A6.84,6.84,0,0,0,470,286.31Z" style="fill: rgb(38, 50, 56); transform-origin: 444.625px 289.209px;" id="elkp3g1rsgio8" class="animable"></path><path d="M437.88,349.74A12.79,12.79,0,0,0,450.4,337.1l.59-50.85h0a4,4,0,0,0-3.62-4.1l-21.48-5.43C419,276,414.44,284.46,414,291.36c-.48,7.67-.77,17.05.14,22.78,1.83,11.5,10.65,13,10.65,13s0,4.45,0,9.9a12.79,12.79,0,0,0,13.06,12.73Z" style="fill: rgb(255, 190, 157); transform-origin: 432.269px 313.225px;" id="el1ptnyti2i1y" class="animable"></path><path d="M418.46,298.81a1.48,1.48,0,0,0,1.43,1.49,1.41,1.41,0,0,0,1.52-1.33,1.47,1.47,0,0,0-1.42-1.49A1.42,1.42,0,0,0,418.46,298.81Z" style="fill: rgb(38, 50, 56); transform-origin: 419.935px 298.89px;" id="elmb4vkf76y9q" class="animable"></path><path d="M416,296.24c.18.2,1.3-.63,2.89-.63s2.75.8,2.92.61-.1-.44-.61-.81a4.14,4.14,0,0,0-2.34-.72,3.87,3.87,0,0,0-2.3.75C416.11,295.81,416,296.16,416,296.24Z" style="fill: rgb(38, 50, 56); transform-origin: 418.93px 295.481px;" id="elxp53kxi2jns" class="animable"></path><path d="M433.57,298.81A1.47,1.47,0,0,0,435,300.3a1.42,1.42,0,0,0,1.53-1.33,1.48,1.48,0,0,0-1.43-1.49A1.41,1.41,0,0,0,433.57,298.81Z" style="fill: rgb(38, 50, 56); transform-origin: 435.05px 298.89px;" id="ellxik1gs32dq" class="animable"></path><path d="M431.65,296.54c.18.19,1.3-.63,2.89-.63s2.75.8,2.92.6-.1-.43-.61-.8a4.06,4.06,0,0,0-2.34-.72,3.87,3.87,0,0,0-2.3.74C431.72,296.11,431.56,296.45,431.65,296.54Z" style="fill: rgb(38, 50, 56); transform-origin: 434.568px 295.779px;" id="elf3791c9aikh" class="animable"></path><path d="M425.88,308.32a10.66,10.66,0,0,0-2.58-.47c-.4,0-.78-.12-.85-.4a2,2,0,0,1,.27-1.2l1.2-3.09c1.66-4.39,2.87-8,2.69-8.07s-1.67,3.44-3.34,7.84l-1.15,3.1a2.41,2.41,0,0,0-.21,1.59,1,1,0,0,0,.67.6,2.62,2.62,0,0,0,.69.09A10.31,10.31,0,0,0,425.88,308.32Z" style="fill: rgb(38, 50, 56); transform-origin: 424.243px 301.743px;" id="el6az056rr1hy" class="animable"></path><path d="M424.79,327.11A29.27,29.27,0,0,0,440.2,323s-3.74,7.9-15.26,6.82Z" style="fill: rgb(235, 153, 110); transform-origin: 432.495px 326.461px;" id="ely0vmkylew5" class="animable"></path><path d="M426.56,312.14a2.86,2.86,0,0,1,2.56-1.06,2.61,2.61,0,0,1,1.8,1,1.65,1.65,0,0,1,.13,1.89,1.93,1.93,0,0,1-2.08.53,6.19,6.19,0,0,1-2-1.21,1.67,1.67,0,0,1-.45-.47.53.53,0,0,1,0-.59" style="fill: rgb(235, 153, 110); transform-origin: 428.859px 312.836px;" id="elicj5sk21y6h" class="animable"></path><path d="M430.56,309.41c-.26,0-.26,1.71-1.74,2.94s-3.31,1-3.32,1.27.41.34,1.18.36a4.35,4.35,0,0,0,2.78-1,3.73,3.73,0,0,0,1.34-2.46C430.87,309.83,430.67,309.41,430.56,309.41Z" style="fill: rgb(38, 50, 56); transform-origin: 428.157px 311.695px;" id="el5kzqyphd7k2" class="animable"></path><path d="M430.93,293.76c.16.43,1.74.23,3.61.45s3.37.73,3.61.35c.11-.19-.15-.59-.75-1a6.34,6.34,0,0,0-5.51-.61C431.21,293.22,430.86,293.56,430.93,293.76Z" style="fill: rgb(38, 50, 56); transform-origin: 434.548px 293.64px;" id="el9zeklppe8" class="animable"></path><path d="M416.26,293.31c.28.36,1.37,0,2.69,0s2.43.25,2.68-.13c.12-.19-.06-.55-.55-.89a3.69,3.69,0,0,0-2.18-.59,3.73,3.73,0,0,0-2.15.73C416.29,292.77,416.14,293.14,416.26,293.31Z" style="fill: rgb(38, 50, 56); transform-origin: 418.943px 292.583px;" id="el42ha0fm91bi" class="animable"></path><path d="M449.71,300.55a2.9,2.9,0,0,1,3,.15,5.34,5.34,0,0,1-3.36,9.91" style="fill: rgb(255, 190, 157); transform-origin: 452.354px 305.427px;" id="elmr791oh5har" class="animable"></path><path d="M450.52,307.18c0-.08.44.09,1-.16a2,2,0,0,0,1-2,2,2,0,0,0-1.23-1.84c-.58-.24-1-.12-1-.21s.39-.36,1.15-.19a2.07,2.07,0,0,1,1.12.7,2.56,2.56,0,0,1,.57,1.51,2.28,2.28,0,0,1-1.44,2.4C450.88,307.62,450.46,307.22,450.52,307.18Z" style="fill: rgb(235, 153, 110); transform-origin: 451.718px 305.093px;" id="elce7q0ucz6f9" class="animable"></path><path d="M453.66,309.51s.2.11.53.37L455.6,311l5,4.22.17.14-.14.17c-1.85,2.22-3.91,5-6.22,7.9-.53.66-1.05,1.3-1.56,1.9l-.43.5,0-.66c-.2-4.68-.37-8.83-.46-11.81,0-1.41-.06-2.59-.08-3.5a7,7,0,0,1,0-1.28,5.81,5.81,0,0,1,.16,1.27c.06.91.14,2.08.24,3.5.18,3,.4,7.11.63,11.8l-.45-.16,1.54-1.88c2.31-2.9,4.39-5.66,6.29-7.87l0,.31-4.85-4.36L454.1,310A3,3,0,0,1,453.66,309.51Z" style="fill: rgb(69, 90, 100); transform-origin: 456.31px 317.205px;" id="eltox7phjrca" class="animable"></path><path d="M430.39,271.69a42.19,42.19,0,0,0-8.39.92,14,14,0,0,0-7.25,4.08,8.52,8.52,0,0,0-2,7.85,6.17,6.17,0,0,0,6.37,4.44c2.12-.28,4.15-1.85,6.2-1.23s3,2.95,5,3.32,3.71-1.4,5.69-1.58c2.2-.19,4.1,1.61,5.08,3.59s1.35,4.2,2.33,6.17a5,5,0,0,0,3,2.82,4.08,4.08,0,0,0,3.59-1,8.41,8.41,0,0,0,2.1-3.22,17.88,17.88,0,0,0-14.52-24.5" style="fill: rgb(38, 50, 56); transform-origin: 432.961px 286.922px;" id="eld7xu27cfjk" class="animable"></path><path d="M458.43,283.91c-.09,0-.36-.93-1.06-2.34a16.7,16.7,0,0,0-8.91-8c-1.47-.56-2.44-.73-2.43-.82s.26,0,.7,0a10.56,10.56,0,0,1,1.86.43,15.12,15.12,0,0,1,5.42,3.16,15,15,0,0,1,3.69,5.08,9.91,9.91,0,0,1,.62,1.8A2.09,2.09,0,0,1,458.43,283.91Z" style="fill: rgb(22, 22, 22); transform-origin: 452.23px 278.31px;" id="eloli7sp8pfy" class="animable"></path><path d="M467.23,267.06a17.4,17.4,0,0,0-2.77-.86,11,11,0,0,0-6.75,1,14.82,14.82,0,0,0-5.21,4.54c-1.07,1.45-1.57,2.46-1.65,2.42a2.25,2.25,0,0,1,.28-.75,14.48,14.48,0,0,1,1.06-1.88,13.94,13.94,0,0,1,5.29-4.79,10.62,10.62,0,0,1,7-.91,7.59,7.59,0,0,1,2.05.76C467,266.85,467.25,267,467.23,267.06Z" style="fill: rgb(69, 90, 100); transform-origin: 459.041px 269.879px;" id="elrxnafaxday" class="animable"></path><path d="M456.17,280.57a7.34,7.34,0,0,1,0,2.37,19.18,19.18,0,0,1-1.44,5.53,18.92,18.92,0,0,1-3,4.85,7.07,7.07,0,0,1-1.73,1.61,30.1,30.1,0,0,0,4.29-6.66A30.83,30.83,0,0,0,456.17,280.57Z" style="fill: rgb(69, 90, 100); transform-origin: 453.133px 287.75px;" id="elvv3eg5yz7c" class="animable"></path><path d="M456.5,280.82a2,2,0,0,1,.28.66,10.55,10.55,0,0,1,.45,1.89,16.25,16.25,0,0,1-3.08,12.21,10.84,10.84,0,0,1-1.3,1.45c-.34.32-.53.48-.56.45s.65-.78,1.56-2.12a18.32,18.32,0,0,0,2.57-5.7,18.55,18.55,0,0,0,.45-6.24C456.7,281.82,456.41,280.84,456.5,280.82Z" style="fill: rgb(69, 90, 100); transform-origin: 454.852px 289.152px;" id="eleinj12tki6w" class="animable"></path></g><g id="freepik--speech-bubble--inject-72" class="animable animator-active" style="transform-origin: 550.93px 229.672px;"><path d="M486.76,283.44a4.71,4.71,0,1,0,2.15-.16" style="fill: rgb(235, 235, 235); transform-origin: 488.175px 287.961px;" id="el9kl01e2tnwa" class="animable"></path><path d="M500.28,263.79a5.41,5.41,0,1,0,2.47-.18" style="fill: rgb(235, 235, 235); transform-origin: 501.898px 268.986px;" id="el1x310o2kmt2" class="animable"></path><path d="M529.15,177.19c-9-.76-18.19,1.26-24.4,7.88a30.67,30.67,0,0,0-7.8,25.14c-9.62,4-14.86,16.24-11.13,26s15.83,15.3,25.65,11.83a34.8,34.8,0,0,0,59.17,9.42c9.43,2.13,20,2,28-3.56s11.52-17.74,5.48-25.3c10.87-2.65,16.39-16.22,13.17-26.94s-12.88-18.4-23.18-22.75c-6.81-2.88-15.31-4.38-21.12.19a26.91,26.91,0,0,0-43.79-1.87" style="fill: rgb(245, 245, 245); transform-origin: 551.407px 218.46px;" id="el7qjyo4dfi66" class="animable"></path><path d="M529.15,177.19s.18-.24.55-.7a24.28,24.28,0,0,1,1.75-1.93,27.18,27.18,0,0,1,8.36-5.61,27.72,27.72,0,0,1,7.06-2,26,26,0,0,1,8.75.27A27.57,27.57,0,0,1,565,171a27.23,27.23,0,0,1,8.11,8l-.26,0a14.61,14.61,0,0,1,8.56-2.94,27.78,27.78,0,0,1,9.64,1.54,50.59,50.59,0,0,1,9.45,4.33,44.44,44.44,0,0,1,8.75,6.61,32.83,32.83,0,0,1,6.77,9.3,28,28,0,0,1,1.92,5.66,23.71,23.71,0,0,1,.41,6.08,24.08,24.08,0,0,1-3.91,11.79A18.85,18.85,0,0,1,610,226a17.35,17.35,0,0,1-5.89,2.82l.13-.39a14.22,14.22,0,0,1,2.69,5.7,17.31,17.31,0,0,1,.16,6.42,21.14,21.14,0,0,1-6,11.53,24.35,24.35,0,0,1-11.9,6.08,40.16,40.16,0,0,1-13.71.41c-1.67-.21-3.32-.54-4.94-.88l.26-.09a34.81,34.81,0,0,1-49.65,4.23,35.32,35.32,0,0,1-9.94-13.72l.3.13a20.91,20.91,0,0,1-16.78-1.75A19.68,19.68,0,0,1,485,234a21.09,21.09,0,0,1,2-14.67,20.37,20.37,0,0,1,9.9-9.3l-.1.19a30.63,30.63,0,0,1,.62-11.88,30.42,30.42,0,0,1,7.3-13.42,24.31,24.31,0,0,1,3.35-2.91,24.64,24.64,0,0,1,6.89-3.47,35.53,35.53,0,0,1,14.21-1.37s-.32,0-.94,0-1.54-.07-2.76-.07A34.14,34.14,0,0,0,515,178.75a24.49,24.49,0,0,0-6.82,3.48,23.72,23.72,0,0,0-3.3,2.89,30.23,30.23,0,0,0-2.94,3.73,31.17,31.17,0,0,0-4.24,9.59,30.58,30.58,0,0,0-.58,11.75l0,.13-.13.06a20.08,20.08,0,0,0-9.69,9.15,20.73,20.73,0,0,0-2,14.39A19.24,19.24,0,0,0,495,246.07a20.48,20.48,0,0,0,16.41,1.7l.21-.07.09.21a35.33,35.33,0,0,0,25.45,21.18,35.23,35.23,0,0,0,33.29-11.84l.1-.12.15,0c1.61.34,3.24.67,4.9.87a39.78,39.78,0,0,0,13.52-.4,23.78,23.78,0,0,0,11.66-5.94,20.56,20.56,0,0,0,5.83-11.24,15,15,0,0,0-2.73-11.73l-.24-.3.38-.1a17.17,17.17,0,0,0,5.72-2.73A18.57,18.57,0,0,0,614,221a23.53,23.53,0,0,0,3.84-11.55,22.79,22.79,0,0,0-.39-6,27.08,27.08,0,0,0-1.88-5.55,32.39,32.39,0,0,0-6.66-9.19,43.76,43.76,0,0,0-8.66-6.55,50,50,0,0,0-9.35-4.32,27.59,27.59,0,0,0-9.5-1.54,14.24,14.24,0,0,0-8.36,2.84l-.15.12-.11-.16a27.25,27.25,0,0,0-17.23-11.67,25.83,25.83,0,0,0-8.66-.31,28,28,0,0,0-15.38,7.45c-.81.8-1.41,1.44-1.78,1.89S529.15,177.19,529.15,177.19Z" style="fill: rgb(38, 50, 56); transform-origin: 551.436px 218.502px;" id="ela1onkzzu1rj" class="animable"></path><path d="M591,208.36c0,.43-17.74.78-39.61.78s-39.6-.35-39.6-.78,17.73-.78,39.6-.78S591,207.93,591,208.36Z" style="fill: rgb(69, 90, 100); transform-origin: 551.395px 208.36px;" id="ely9b9ve1f2i" class="animable"></path><path d="M591,217c0,.43-17.74.78-39.61.78s-39.6-.35-39.6-.78,17.73-.79,39.6-.79S591,216.52,591,217Z" style="fill: rgb(69, 90, 100); transform-origin: 551.395px 216.995px;" id="ele3qrqv6or6f" class="animable"></path><path d="M591,225.55c0,.43-17.74.78-39.61.78s-39.6-.35-39.6-.78,17.73-.78,39.6-.78S591,225.12,591,225.55Z" style="fill: rgb(69, 90, 100); transform-origin: 551.395px 225.55px;" id="elgg301j3kwmf" class="animable"></path><path d="M591,234.14c0,.43-17.74.78-39.61.78s-39.6-.35-39.6-.78,17.73-.78,39.6-.78S591,233.71,591,234.14Z" style="fill: rgb(69, 90, 100); transform-origin: 551.395px 234.14px;" id="ele2fxrto61hd" class="animable"></path></g><defs>     <filter id="active" height="200%">         <feMorphology in="SourceAlpha" result="DILATED" operator="dilate" radius="2"></feMorphology>                <feFlood flood-color="#32DFEC" flood-opacity="1" result="PINK"></feFlood>        <feComposite in="PINK" in2="DILATED" operator="in" result="OUTLINE"></feComposite>        <feMerge>            <feMergeNode in="OUTLINE"></feMergeNode>            <feMergeNode in="SourceGraphic"></feMergeNode>        </feMerge>    </filter>    <filter id="hover" height="200%">        <feMorphology in="SourceAlpha" result="DILATED" operator="dilate" radius="2"></feMorphology>                <feFlood flood-color="#ff0000" flood-opacity="0.5" result="PINK"></feFlood>        <feComposite in="PINK" in2="DILATED" operator="in" result="OUTLINE"></feComposite>        <feMerge>            <feMergeNode in="OUTLINE"></feMergeNode>            <feMergeNode in="SourceGraphic"></feMergeNode>        </feMerge>            <feColorMatrix type="matrix" values="0   0   0   0   0                0   1   0   0   0                0   0   0   0   0                0   0   0   1   0 "></feColorMatrix>    </filter></defs></svg>